#!OML:ASF E:\emotionWalksFemale\Project 1\Capture day 1\Session 1\Female1.ASF
:FULLY-SPECIFIED
:DEGREES
1961
root 11.6804 15.2687 -30.6207 14.8036 -23.1062 -6.16052
lowerback 19.5901 2.09846 -3.10639
upperback 1.48657 1.7944 -2.42608
thorax -9.38951 0.905723 -1.36492
lowerneck -8.39279 3.5627 -2.82
upperneck -7.21172 5.20115 6.18172
head -1.10671 2.64867 2.5269
rclavicle 3.33958e-014 -2.38542e-014
rhumerus -37.3905 14.112 -90.8339
rradius 38.1813
rwrist 7.14879
rhand -1.36321 -51.1951
rfingers 7.12502
rthumb 24.284 -79.677
lclavicle 3.33958e-014 -2.38542e-014
lhumerus -22.6532 17.7412 73.5956
lradius 34.6446
lwrist -10.9268
lhand -8.52543 -32.333
lfingers 7.12502
lthumb 17.4032 -3.09207
rfemur -21.2113 1.15935 29.4904
rtibia 35.335
rfoot -27.2499 -39.1474
rtoes 40.777
lfemur -31.3022 -6.30417 -19.3597
ltibia 43.0861
lfoot -25.7144 20.4546
ltoes 10.1073
1962
root 11.6824 15.2721 -30.5951 14.7984 -23.281 -6.17764
lowerback 19.6592 2.12395 -3.11277
upperback 1.38008 1.82723 -2.35724
thorax -9.54819 0.924126 -1.30162
lowerneck -8.21052 3.59026 -2.63037
upperneck -7.13459 5.20908 5.95773
head -1.1004 2.64657 2.41408
rclavicle 3.49861e-014 -6.36111e-015
rhumerus -37.7256 14.0533 -90.8097
rradius 38.15
rwrist 7.17976
rhand -1.68183 -50.8809
rfingers 7.12502
rthumb 23.9785 -79.4034
lclavicle 3.49861e-014 -6.36111e-015
lhumerus -23.106 18.2249 73.5846
lradius 34.247
lwrist -11.7486
lhand -8.57715 -32.7123
lfingers 7.12502
lthumb 17.3534 -3.46697
rfemur -21.5682 1.29729 29.5901
rtibia 35.4961
rfoot -26.6984 -39.2753
rtoes 40.376
lfemur -31.0833 -6.17697 -19.4338
ltibia 42.9265
lfoot -25.8375 20.4962
ltoes 10.2481
1963
root 11.6841 15.2779 -30.5672 14.7488 -23.3489 -6.17951
lowerback 19.6587 2.0729 -3.08324
upperback 1.42423 1.78068 -2.23607
thorax -9.50162 0.903539 -1.17146
lowerneck -8.31763 3.64902 -2.72712
upperneck -7.06602 5.28772 5.83716
head -1.06335 2.6911 2.39513
rclavicle -1.66979e-014 4.77083e-015
rhumerus -37.7551 14.1625 -90.6793
rradius 38.0455
rwrist 7.3073
rhand -1.53309 -50.9425
rfingers 7.12502
rthumb 24.1211 -79.4461
lclavicle -1.66979e-014 4.77083e-015
lhumerus -23.4412 18.6087 73.7233
lradius 34.097
lwrist -12.2832
lhand -8.46817 -32.6545
lfingers 7.12502
lthumb 17.4583 -3.41846
rfemur -21.8242 1.20332 29.7238
rtibia 35.6625
rfoot -26.3787 -39.1724
rtoes 40.056
lfemur -30.8085 -6.15094 -19.4986
ltibia 42.7635
lfoot -26.0311 20.6029
ltoes 10.1276
1964
root 11.6867 15.2795 -30.542 14.702 -23.3825 -6.13898
lowerback 19.5974 2.0671 -3.00742
upperback 1.55663 1.80008 -2.19508
thorax -9.32021 0.909345 -1.16818
lowerneck -8.4958 3.65739 -2.66935
upperneck -7.10961 5.29152 5.68158
head -1.0412 2.69411 2.33676
rclavicle -1.98785e-014 1.11319e-014
rhumerus -37.6033 13.9811 -90.4967
rradius 38.0079
rwrist 7.27008
rhand -0.839421 -51.5324
rfingers 7.12502
rthumb 24.7861 -79.9462
lclavicle -1.98785e-014 1.11319e-014
lhumerus -23.714 18.0835 73.9128
lradius 34.3409
lwrist -12.0477
lhand -8.01882 -31.9863
lfingers 7.12502
lthumb 17.8907 -2.78925
rfemur -22.1215 1.13602 29.8108
rtibia 35.8524
rfoot -26.2393 -39.0913
rtoes 39.9448
lfemur -30.5568 -6.1086 -19.6256
ltibia 42.6027
lfoot -26.1307 20.7148
ltoes 9.44855
1965
root 11.6896 15.2778 -30.5201 14.7592 -23.4524 -6.09535
lowerback 19.5311 2.03858 -3.04764
upperback 1.48319 1.76805 -2.07864
thorax -9.36964 0.89964 -1.00951
lowerneck -8.13005 3.73246 -2.65733
upperneck -7.26024 5.3866 5.49227
head -1.14881 2.73497 2.263
rclavicle -2.78299e-014 -1.59028e-015
rhumerus -37.8121 14.0333 -90.319
rradius 37.9936
rwrist 7.09954
rhand -0.859829 -51.4357
rfingers 7.12502
rthumb 24.7666 -79.8522
lclavicle -2.78299e-014 -1.59028e-015
lhumerus -23.8618 18.2764 74.1389
lradius 34.0371
lwrist -12.3694
lhand -7.74462 -31.4655
lfingers 7.12502
lthumb 18.1545 -2.29269
rfemur -22.6053 1.10515 29.8938
rtibia 36.0899
rfoot -25.7746 -39.1828
rtoes 39.4557
lfemur -30.4405 -5.96393 -19.7619
ltibia 42.4484
lfoot -26.2736 20.7961
ltoes 9.25336
1966
root 11.6906 15.2817 -30.4997 14.8066 -23.5304 -6.01399
lowerback 19.5632 2.06039 -3.18478
upperback 1.41327 1.77269 -1.99045
thorax -9.47195 0.910485 -0.840196
lowerneck -8.09683 3.79178 -2.54354
upperneck -7.2594 5.4513 5.35058
head -1.14906 2.76451 2.19558
rclavicle 4.45278e-014 -3.02153e-014
rhumerus -37.9343 13.8221 -90.0965
rradius 37.8822
rwrist 7.219
rhand -1.17135 -50.919
rfingers 7.12502
rthumb 24.468 -79.3762
lclavicle 4.45278e-014 -3.02153e-014
lhumerus -24.0797 18.3518 74.3251
lradius 33.8999
lwrist -12.6799
lhand -7.7472 -31.3381
lfingers 7.12502
lthumb 18.1521 -2.16513
rfemur -23.1226 1.03624 29.943
rtibia 36.3439
rfoot -25.0683 -39.2717
rtoes 38.4458
lfemur -30.3453 -5.7259 -19.9405
ltibia 42.2939
lfoot -26.484 20.7074
ltoes 9.76004
1967
root 11.6901 15.2879 -30.4779 14.7521 -23.6645 -5.93948
lowerback 19.6819 2.06428 -3.35932
upperback 1.2984 1.7451 -1.85286
thorax -9.67449 0.909945 -0.591143
lowerneck -7.70871 3.91131 -2.71085
upperneck -7.33308 5.62324 5.35272
head -1.25087 2.84863 2.21785
rclavicle 3.73715e-014 4.77083e-015
rhumerus -38.2431 13.7261 -89.8798
rradius 37.8157
rwrist 7.48057
rhand -1.15441 -50.8534
rfingers 7.12502
rthumb 24.4842 -79.3084
lclavicle 3.73715e-014 4.77083e-015
lhumerus -24.5738 18.55 74.4594
lradius 33.8855
lwrist -13.0687
lhand -7.71709 -31.2457
lfingers 7.12502
lthumb 18.181 -2.0754
rfemur -23.4616 1.24063 29.9297
rtibia 36.5613
rfoot -25.1936 -39.0556
rtoes 38.7022
lfemur -30.0964 -5.51157 -20.118
ltibia 42.1389
lfoot -26.7807 20.4615
ltoes 10.6491
1968
root 11.6906 15.292 -30.4508 14.7019 -23.8667 -5.94031
lowerback 19.6868 2.08326 -3.4026
upperback 1.32217 1.77008 -1.76183
thorax -9.65552 0.925505 -0.473459
lowerneck -7.93647 3.98531 -2.80467
upperneck -7.10534 5.7243 5.40746
head -1.1492 2.90682 2.26084
rclavicle -2.14687e-014 2.38542e-014
rhumerus -38.3228 13.5641 -89.6368
rradius 37.802
rwrist 7.66887
rhand -1.18358 -50.6525
rfingers 7.12502
rthumb 24.4562 -79.1113
lclavicle -2.14687e-014 2.38542e-014
lhumerus -24.7111 18.504 74.6996
lradius 33.8481
lwrist -13.284
lhand -7.65725 -31.0917
lfingers 7.12502
lthumb 18.2386 -1.92678
rfemur -23.6719 1.55871 29.9402
rtibia 36.733
rfoot -25.5676 -38.4105
rtoes 39.5179
lfemur -29.7561 -5.42634 -20.2152
ltibia 41.9807
lfoot -27.12 20.3963
ltoes 10.9815
1969
root 11.6903 15.2941 -30.4206 14.6924 -24.065 -5.95387
lowerback 19.5726 2.09523 -3.37341
upperback 1.35355 1.80473 -1.70569
thorax -9.55918 0.941506 -0.43338
lowerneck -8.1113 4.04568 -2.73194
upperneck -6.92323 5.79151 5.34417
head -1.06028 2.94313 2.23353
rclavicle -7.15625e-015 -1.43125e-014
rhumerus -38.3798 13.384 -89.4214
rradius 37.8113
rwrist 7.6608
rhand -1.00536 -50.4943
rfingers 7.12502
rthumb 24.6271 -78.9299
lclavicle -7.15625e-015 -1.43125e-014
lhumerus -24.8498 18.2089 74.9211
lradius 33.9018
lwrist -13.2324
lhand -7.72483 -31.2678
lfingers 7.12502
lthumb 18.1736 -2.09677
rfemur -23.8908 1.68102 29.9661
rtibia 36.8804
rfoot -24.9047 -37.6318
rtoes 39.2261
lfemur -29.4642 -5.3814 -20.2975
ltibia 41.8083
lfoot -27.3795 20.491
ltoes 10.3029
1970
root 11.688 15.2952 -30.3913 14.73 -24.1961 -5.97331
lowerback 19.4326 2.09465 -3.34459
upperback 1.32447 1.82586 -1.62313
thorax -9.51616 0.952919 -0.361484
lowerneck -7.93906 4.11466 -2.63859
upperneck -6.97333 5.87239 5.22189
head -1.10159 2.97879 2.17241
rclavicle 4.21423e-014 -3.02153e-014
rhumerus -38.4825 13.1973 -89.2109
rradius 37.8358
rwrist 7.51818
rhand -0.786439 -50.6976
rfingers 7.12502
rthumb 24.8369 -79.1044
lclavicle 4.21423e-014 -3.02153e-014
lhumerus -25.1784 18.0444 75.0932
lradius 34.0057
lwrist -13.2712
lhand -7.78528 -31.6416
lfingers 7.12502
lthumb 18.1154 -2.46519
rfemur -24.2249 1.84629 30.0128
rtibia 37.0178
rfoot -23.3345 -37.4128
rtoes 37.4586
lfemur -29.2673 -5.29947 -20.352
ltibia 41.6283
lfoot -27.6329 20.5129
ltoes 10.0499
1971
root 11.6858 15.2987 -30.3628 14.7088 -24.3362 -5.95289
lowerback 19.5454 2.00703 -3.21976
upperback 1.1924 1.72613 -1.65968
thorax -9.71777 0.901692 -0.452369
lowerneck -7.65333 4.23671 -2.54207
upperneck -7.04054 6.03178 5.28493
head -1.17722 3.05112 2.16932
rclavicle 2.90226e-014 3.33958e-014
rhumerus -38.7621 13.1146 -89.3152
rradius 37.8134
rwrist 7.11719
rhand -1.19564 -50.6255
rfingers 7.12502
rthumb 24.4447 -79.0859
lclavicle 2.90226e-014 3.33958e-014
lhumerus -25.6824 17.8553 75.0138
lradius 34.0855
lwrist -13.237
lhand -8.0785 -31.6242
lfingers 7.12502
lthumb 17.8333 -2.42192
rfemur -24.5851 1.97418 30.0644
rtibia 37.1548
rfoot -22.0615 -37.4873
rtoes 35.3631
lfemur -29.025 -5.16868 -20.4508
ltibia 41.4279
lfoot -27.7702 20.8285
ltoes 8.70631
